<svg width="144" height="36" viewBox="0 0 144 36" fill="none" xmlns="http://www.w3.org/2000/svg">
<path d="M17.216 8.972C16.808 8.3 16.244 7.784 15.524 7.424C14.828 7.064 14 6.884 13.04 6.884C11.264 6.884 9.86 7.46 8.828 8.612C7.82 9.764 7.316 11.312 7.316 13.256C7.316 15.44 7.856 17.108 8.936 18.26C10.04 19.388 11.636 19.952 13.724 19.952C16.196 19.952 17.96 18.836 19.016 16.604H11.924V11.528H25.1V18.368C24.548 19.712 23.732 20.972 22.652 22.148C21.596 23.324 20.252 24.296 18.62 25.064C16.988 25.808 15.128 26.18 13.04 26.18C10.496 26.18 8.24 25.64 6.272 24.56C4.328 23.456 2.816 21.932 1.736 19.988C0.68 18.02 0.152 15.776 0.152 13.256C0.152 10.76 0.68 8.54 1.736 6.596C2.816 4.628 4.328 3.104 6.272 2.024C8.216 0.92 10.46 0.368 13.004 0.368C16.196 0.368 18.836 1.136 20.924 2.672C23.012 4.208 24.308 6.308 24.812 8.972H17.216ZM47.5581 15.668C47.5581 16.22 47.5221 16.772 47.4501 17.324H34.0941C34.1661 18.428 34.4661 19.256 34.9941 19.808C35.5461 20.336 36.2421 20.6 37.0821 20.6C38.2581 20.6 39.0981 20.072 39.6021 19.016H47.1261C46.8141 20.408 46.2021 21.656 45.2901 22.76C44.4021 23.84 43.2741 24.692 41.9061 25.316C40.5381 25.94 39.0261 26.252 37.3701 26.252C35.3781 26.252 33.6021 25.832 32.0421 24.992C30.5061 24.152 29.2941 22.952 28.4061 21.392C27.5421 19.832 27.1101 17.996 27.1101 15.884C27.1101 13.772 27.5421 11.948 28.4061 10.412C29.2701 8.852 30.4701 7.652 32.0061 6.812C33.5661 5.972 35.3541 5.552 37.3701 5.552C39.3621 5.552 41.1261 5.96 42.6621 6.776C44.1981 7.592 45.3981 8.768 46.2621 10.304C47.1261 11.816 47.5581 13.604 47.5581 15.668ZM40.3581 13.904C40.3581 13.04 40.0701 12.368 39.4941 11.888C38.9181 11.384 38.1981 11.132 37.3341 11.132C36.4701 11.132 35.7621 11.372 35.2101 11.852C34.6581 12.308 34.2981 12.992 34.1301 13.904H40.3581ZM59.8417 26.252C57.8257 26.252 56.0137 25.832 54.4057 24.992C52.8217 24.152 51.5737 22.952 50.6617 21.392C49.7497 19.832 49.2937 17.996 49.2937 15.884C49.2937 13.796 49.7497 11.972 50.6617 10.412C51.5977 8.852 52.8577 7.652 54.4417 6.812C56.0497 5.972 57.8617 5.552 59.8777 5.552C61.8937 5.552 63.6937 5.972 65.2777 6.812C66.8857 7.652 68.1457 8.852 69.0577 10.412C69.9937 11.972 70.4617 13.796 70.4617 15.884C70.4617 17.972 69.9937 19.808 69.0577 21.392C68.1457 22.952 66.8857 24.152 65.2777 24.992C63.6697 25.832 61.8577 26.252 59.8417 26.252ZM59.8417 20.132C60.8257 20.132 61.6417 19.772 62.2897 19.052C62.9617 18.308 63.2977 17.252 63.2977 15.884C63.2977 14.516 62.9617 13.472 62.2897 12.752C61.6417 12.032 60.8377 11.672 59.8777 11.672C58.9177 11.672 58.1137 12.032 57.4657 12.752C56.8177 13.472 56.4937 14.516 56.4937 15.884C56.4937 17.276 56.8057 18.332 57.4297 19.052C58.0537 19.772 58.8577 20.132 59.8417 20.132ZM80.3884 9.368C81.1804 8.216 82.1404 7.304 83.2684 6.632C84.3964 5.96 85.6084 5.624 86.9044 5.624V13.148H84.9244C83.3884 13.148 82.2484 13.448 81.5044 14.048C80.7604 14.648 80.3884 15.692 80.3884 17.18V26H73.3324V5.804H80.3884V9.368ZM96.886 5.552C98.254 5.552 99.442 5.828 100.45 6.38C101.482 6.932 102.274 7.676 102.826 8.612V5.804H109.882V25.784C109.882 27.68 109.522 29.384 108.802 30.896C108.082 32.432 106.954 33.656 105.418 34.568C103.906 35.48 101.986 35.936 99.658 35.936C96.538 35.936 94.042 35.204 92.17 33.74C90.298 32.276 89.23 30.284 88.966 27.764H95.914C96.058 28.412 96.418 28.916 96.994 29.276C97.57 29.636 98.314 29.816 99.226 29.816C101.626 29.816 102.826 28.472 102.826 25.784V23.192C102.274 24.128 101.482 24.872 100.45 25.424C99.442 25.976 98.254 26.252 96.886 26.252C95.278 26.252 93.814 25.832 92.494 24.992C91.198 24.152 90.166 22.952 89.398 21.392C88.654 19.808 88.282 17.972 88.282 15.884C88.282 13.796 88.654 11.972 89.398 10.412C90.166 8.852 91.198 7.652 92.494 6.812C93.814 5.972 95.278 5.552 96.886 5.552ZM102.826 15.884C102.826 14.588 102.466 13.568 101.746 12.824C101.05 12.08 100.186 11.708 99.154 11.708C98.098 11.708 97.222 12.08 96.526 12.824C95.83 13.544 95.482 14.564 95.482 15.884C95.482 17.18 95.83 18.212 96.526 18.98C97.222 19.724 98.098 20.096 99.154 20.096C100.186 20.096 101.05 19.724 101.746 18.98C102.466 18.236 102.826 17.204 102.826 15.884ZM133.199 15.668C133.199 16.22 133.163 16.772 133.091 17.324H119.735C119.807 18.428 120.107 19.256 120.635 19.808C121.187 20.336 121.883 20.6 122.723 20.6C123.899 20.6 124.739 20.072 125.243 19.016H132.767C132.455 20.408 131.843 21.656 130.931 22.76C130.043 23.84 128.915 24.692 127.547 25.316C126.179 25.94 124.667 26.252 123.011 26.252C121.019 26.252 119.243 25.832 117.683 24.992C116.147 24.152 114.935 22.952 114.047 21.392C113.183 19.832 112.751 17.996 112.751 15.884C112.751 13.772 113.183 11.948 114.047 10.412C114.911 8.852 116.111 7.652 117.647 6.812C119.207 5.972 120.995 5.552 123.011 5.552C125.003 5.552 126.767 5.96 128.303 6.776C129.839 7.592 131.039 8.768 131.903 10.304C132.767 11.816 133.199 13.604 133.199 15.668ZM125.999 13.904C125.999 13.04 125.711 12.368 125.135 11.888C124.559 11.384 123.839 11.132 122.975 11.132C122.111 11.132 121.403 11.372 120.851 11.852C120.299 12.308 119.939 12.992 119.771 13.904H125.999Z" fill="#171717"/>
<path d="M139.506 26.288C138.258 26.288 137.25 25.952 136.482 25.28C135.738 24.584 135.366 23.708 135.366 22.652C135.366 21.596 135.738 20.72 136.482 20.024C137.25 19.328 138.258 18.98 139.506 18.98C140.73 18.98 141.714 19.328 142.458 20.024C143.226 20.72 143.61 21.596 143.61 22.652C143.61 23.684 143.226 24.548 142.458 25.244C141.714 25.94 140.73 26.288 139.506 26.288Z" fill="#5562FF"/>
</svg>
